<svg xmlns="http://www.w3.org/2000/svg" width="95.792" height="10.256" viewBox="0 0 95.792 10.256">
  <g id="그룹_3404" data-name="그룹 3404" transform="translate(-475.974 -887.995)">
    <g id="그룹_3355" data-name="그룹 3355" transform="translate(475.974 887.995)">
      <path id="패스_3009" data-name="패스 3009" d="M745.306,893.987c-.088-.083-.192-.2-.3-.279.019,0,.051-.033.086-.057a1.346,1.346,0,0,0,.224-.18,2.522,2.522,0,0,0,.808-1.058,2.266,2.266,0,0,0,.21-.98,2.724,2.724,0,0,0-1.164-2.339,3.942,3.942,0,0,0-1.642-.634,11.916,11.916,0,0,0-1.955-.161,27.479,27.479,0,0,0-2.85.161h-.091a2.987,2.987,0,0,0-.437.063l-.342.028v9.8h3.378v-3.619a1.641,1.641,0,0,1,.591.1c1.033.32,1.575,1.489,1.673,3.514h3.476A6.106,6.106,0,0,0,745.306,893.987Zm-2.158-2.378c-.05,1.478-1.914,1.1-1.914,1.1v-2.215C743.263,890.218,743.148,891.609,743.148,891.609Z" transform="translate(-656.986 -888.204)" fill="#16284c"/>
      <path id="패스_3010" data-name="패스 3010" d="M485.286,889.116l-1.458,2.629a6.406,6.406,0,0,0-3.061-.389,1.878,1.878,0,0,0-1.426,1.743,1.519,1.519,0,0,0,.558,1.379,1.983,1.983,0,0,0,1.2.539,7.935,7.935,0,0,0,2.806-.417l1.378,2.646a7.008,7.008,0,0,1-1.85.744,7.691,7.691,0,0,1-2.06.277,5.323,5.323,0,0,1-3.931-1.449,4.826,4.826,0,0,1-1.471-3.581,4.917,4.917,0,0,1,1.524-3.7,5.367,5.367,0,0,1,3.878-1.454,7.435,7.435,0,0,1,2.1.29,5.744,5.744,0,0,1,1.81.743Z" transform="translate(-475.974 -888.057)" fill="#16284c"/>
      <path id="패스_3011" data-name="패스 3011" d="M517.63,898.267A4.815,4.815,0,0,1,514.1,896.8a5,5,0,0,1-1.449-3.627,4.923,4.923,0,0,1,1.449-3.615,4.973,4.973,0,0,1,7.065,0,4.985,4.985,0,0,1,1.451,3.615,5.061,5.061,0,0,1-1.451,3.627,4.842,4.842,0,0,1-3.539,1.469Zm0-6.958a1.592,1.592,0,0,0-1.23.53,1.854,1.854,0,0,0-.51,1.333,1.828,1.828,0,0,0,.51,1.332,1.548,1.548,0,0,0,1.23.537,1.623,1.623,0,0,0,1.245-.537,1.9,1.9,0,0,0,.483-1.332,1.931,1.931,0,0,0-.483-1.333,1.67,1.67,0,0,0-1.245-.53Z" transform="translate(-501.328 -888.057)" fill="#16284c"/>
      <path id="패스_3012" data-name="패스 3012" d="M598.483,889.116l-1.442,2.629a6.491,6.491,0,0,0-3.072-.389,1.876,1.876,0,0,0-1.428,1.743,1.5,1.5,0,0,0,.559,1.379,2,2,0,0,0,1.2.539,7.866,7.866,0,0,0,2.8-.417l1.377,2.646a7.057,7.057,0,0,1-1.836.744,7.824,7.824,0,0,1-2.07.277,5.329,5.329,0,0,1-3.936-1.449,4.858,4.858,0,0,1-1.468-3.581,4.919,4.919,0,0,1,1.523-3.7,5.4,5.4,0,0,1,3.881-1.454,7.453,7.453,0,0,1,2.1.29,5.848,5.848,0,0,1,1.806.743Z" transform="translate(-554.217 -888.057)" fill="#16284c"/>
      <path id="패스_3013" data-name="패스 3013" d="M630.822,898.267A4.808,4.808,0,0,1,627.3,896.8a5.038,5.038,0,0,1-1.441-3.627,4.962,4.962,0,0,1,1.441-3.615,4.982,4.982,0,0,1,7.073,0,5.021,5.021,0,0,1,1.436,3.615,5.1,5.1,0,0,1-1.436,3.627,4.85,4.85,0,0,1-3.552,1.469Zm0-6.958a1.6,1.6,0,0,0-1.219.53,1.861,1.861,0,0,0-.493,1.333,1.835,1.835,0,0,0,.493,1.332,1.554,1.554,0,0,0,1.219.537,1.643,1.643,0,0,0,1.26-.537,1.923,1.923,0,0,0,.49-1.332,1.951,1.951,0,0,0-.49-1.333,1.692,1.692,0,0,0-1.26-.53Z" transform="translate(-579.574 -888.057)" fill="#16284c"/>
      <path id="패스_3014" data-name="패스 3014" d="M556.033,888.592v3.3a2.058,2.058,0,0,0,1.663-.938,4.188,4.188,0,0,0,.578-2.359h3.644a8.13,8.13,0,0,1-.482,2.974,4.574,4.574,0,0,1-1.447,1.942c1.333,1.021,2.051,2.666,2.2,4.946h-3.9c-.112-2.349-.861-3.545-2.25-3.6v3.6h-3.568v-9.863Z" transform="translate(-528.844 -888.408)" fill="#16284c"/>
      <path id="패스_3015" data-name="패스 3015" d="M671.572,891.73l-.159-.046c-.765-.238-1.422-.436-1.422-.619,0-.094.26-.254.866-.254a5.9,5.9,0,0,1,2.2.45l.388.153.832-2.749-.328-.126a7.835,7.835,0,0,0-3.053-.544c-2.577,0-4.389,1.327-4.389,3.253,0,1.55,1.089,2.632,3.234,3.206,1.177.33,1.312.526,1.312.585,0,.261-.5.358-.96.358a6.312,6.312,0,0,1-2.571-.612l-.4-.2-.757,2.848.288.141a8.171,8.171,0,0,0,3.248.675c3.445,0,4.66-1.732,4.66-3.34C674.556,892.878,672.859,892.121,671.572,891.73Z" transform="translate(-607.568 -887.995)" fill="#16284c"/>
      <path id="패스_3016" data-name="패스 3016" d="M706.1,888.261v5.353c0,1.975-.938,1.975-1.279,1.975-.869,0-1.3-.664-1.3-1.975v-5.353h-3.284v5.212c0,3.172,1.549,4.88,4.476,4.88,3.014,0,4.693-1.708,4.693-4.809v-5.283Z" transform="translate(-630.979 -888.179)" fill="#16284c"/>
      <rect id="사각형_1185" data-name="사각형 1185" width="3.429" height="9.917" transform="translate(92.363 0.166)" fill="#16284c"/>
    </g>
  </g>
</svg>
