<svg xmlns="http://www.w3.org/2000/svg" width="20" height="20" viewBox="0 0 20 20">
  <g id="그룹_4515" data-name="그룹 4515" transform="translate(-116 -469)">
    <g id="패스_3052" data-name="패스 3052" transform="translate(116 469)" fill="#fff">
      <path d="M 10 19.5 C 4.761680126190186 19.5 0.5 15.23832035064697 0.5 10 C 0.5 4.761680126190186 4.761680126190186 0.5 10 0.5 C 15.23832035064697 0.5 19.5 4.761680126190186 19.5 10 C 19.5 15.23832035064697 15.23832035064697 19.5 10 19.5 Z" stroke="none"/>
      <path d="M 10 1 C 5.037380218505859 1 1 5.037380218505859 1 10 C 1 14.96261978149414 5.037380218505859 19 10 19 C 14.96261978149414 19 19 14.96261978149414 19 10 C 19 5.037380218505859 14.96261978149414 1 10 1 M 10 0 C 15.52285003662109 0 20 4.477149963378906 20 10 C 20 15.52285003662109 15.52285003662109 20 10 20 C 4.477149963378906 20 0 15.52285003662109 0 10 C 0 4.477149963378906 4.477149963378906 0 10 0 Z" stroke="none" fill="#e25300"/>
    </g>
    <g id="합치기_10" data-name="합치기 10" transform="translate(120.524 474.794)" fill="#ccc">
      <path d="M 5.145610332489014 7.748592853546143 L 0.7176266312599182 5.207328319549561 L 0.7815170884132385 5.113685131072998 L 4.728180885314941 7.37846040725708 L 5.115700721740723 7.600840091705322 L 5.380100727081299 7.240670204162598 L 10.17475986480713 0.7092109322547913 L 10.25970840454102 0.77492356300354 L 5.145610332489014 7.748592853546143 Z" stroke="none"/>
      <path d="M 5.296700477600098 8.411800384521484 L 6.515502946058405e-07 5.371970176696777 L 0.6291806697845459 4.449790000915527 L 4.977040767669678 6.944790363311768 L 10.07512092590332 1.92260742437611e-07 L 10.95110034942627 0.6776201725006104 L 5.528080463409424 8.072540283203125 L 5.296700477600098 8.411800384521484 Z" stroke="none" fill="#e25300"/>
    </g>
  </g>
</svg>
