<svg xmlns="http://www.w3.org/2000/svg" width="27.429" height="44.638" viewBox="0 0 27.429 44.638">
  <g id="그룹_3293" data-name="그룹 3293" transform="translate(-193.999 -209)">
    <path id="타원_11" data-name="타원 11" d="M13.715,0a33.873,33.873,0,0,1,5.18.386,22.672,22.672,0,0,1,4.261,1.057,9.705,9.705,0,0,1,2.922,1.58,2.8,2.8,0,0,1,1.136,1.957A2.585,2.585,0,0,1,26.23,6.96,9.006,9.006,0,0,1,23.367,8.6a22.027,22.027,0,0,1-4.321,1.112,33.739,33.739,0,0,1-5.332.41,33.739,33.739,0,0,1-5.332-.41A22.027,22.027,0,0,1,4.062,8.6,9.006,9.006,0,0,1,1.2,6.96,2.585,2.585,0,0,1,.215,4.979,2.8,2.8,0,0,1,1.351,3.023a9.705,9.705,0,0,1,2.922-1.58A22.672,22.672,0,0,1,8.534.386,33.873,33.873,0,0,1,13.715,0Z" transform="translate(193.999 243.521)" fill="#16284c" opacity="0.32"/>
    <g id="Icon_awesome-map-marker-alt" data-name="Icon awesome-map-marker-alt" transform="translate(194 209)">
      <path id="Icon_awesome-map-marker-alt-2" data-name="Icon awesome-map-marker-alt" d="M12.113,35.274C1.9,20.463,0,18.943,0,13.5a13.5,13.5,0,0,1,27,0c0,5.443-1.9,6.963-12.113,21.774a1.688,1.688,0,0,1-2.775,0ZM13.5,19.125A5.625,5.625,0,1,0,7.875,13.5,5.625,5.625,0,0,0,13.5,19.125Z" fill="#eb7203"/>
    </g>
  </g>
</svg>
