<svg xmlns="http://www.w3.org/2000/svg" width="19.275" height="19.275" viewBox="0 0 19.275 19.275">
  <path id="Icon_awesome-phone-alt" data-name="Icon awesome-phone-alt" d="M18.725,13.621l-4.216-1.807a.9.9,0,0,0-1.054.26l-1.867,2.281A13.954,13.954,0,0,1,4.917,7.684L7.2,5.817a.9.9,0,0,0,.26-1.054L5.651.546A.91.91,0,0,0,4.615.023L.7.927a.9.9,0,0,0-.7.881C0,7.514,7.207,15.946,7.207,15.946s6.318,3.329,10.261,3.329a.9.9,0,0,0,.881-.7l.9-3.915A.914.914,0,0,0,18.725,13.621Z" transform="translate(0 0)" fill="#fff"/>
</svg>
