<svg xmlns="http://www.w3.org/2000/svg" width="245.557" height="56.824" viewBox="0 0 245.557 56.824">
  <g id="그룹_4469" data-name="그룹 4469" transform="translate(-52 -295.429)">
    <g id="그룹_3356" data-name="그룹 3356" transform="translate(52 325.962)">
      <g id="그룹_3355" data-name="그룹 3355">
        <path id="패스_3009" data-name="패스 3009" d="M756.953,902.88c-.226-.212-.491-.5-.763-.714.05,0,.13-.086.222-.147a3.448,3.448,0,0,0,.574-.462,6.463,6.463,0,0,0,2.072-2.713,5.806,5.806,0,0,0,.538-2.513,6.984,6.984,0,0,0-2.985-6,10.106,10.106,0,0,0-4.208-1.624,30.55,30.55,0,0,0-5.012-.412,70.453,70.453,0,0,0-7.306.412h-.232a7.688,7.688,0,0,0-1.12.161l-.876.071v25.118h8.659v-9.278a4.207,4.207,0,0,1,1.514.269c2.647.82,4.038,3.818,4.289,9.008h8.91C760.914,908.848,759.623,905.461,756.953,902.88Zm-5.531-6.094c-.129,3.789-4.907,2.822-4.907,2.822v-5.679C751.715,893.219,751.422,896.786,751.422,896.786Z" transform="translate(-530.549 -888.058)" fill="#16284c"/>
        <path id="패스_3010" data-name="패스 3010" d="M499.846,890.73l-3.737,6.739c-.98-.678-5.611-1.445-7.846-1a4.815,4.815,0,0,0-3.656,4.469,3.892,3.892,0,0,0,1.431,3.534,5.082,5.082,0,0,0,3.083,1.381,20.345,20.345,0,0,0,7.193-1.069l3.532,6.783a17.972,17.972,0,0,1-4.742,1.907,19.721,19.721,0,0,1-5.282.71q-6.342,0-10.078-3.714a12.371,12.371,0,0,1-3.77-9.179,12.6,12.6,0,0,1,3.907-9.482,13.758,13.758,0,0,1,9.94-3.729,19.054,19.054,0,0,1,5.385.743,14.723,14.723,0,0,1,4.639,1.9Z" transform="translate(-475.974 -888.014)" fill="#16284c"/>
        <path id="패스_3011" data-name="패스 3011" d="M525.407,914.188a12.343,12.343,0,0,1-9.038-3.765,12.812,12.812,0,0,1-3.714-9.3,12.62,12.62,0,0,1,3.714-9.266,12.747,12.747,0,0,1,18.11,0,12.778,12.778,0,0,1,3.719,9.266,12.974,12.974,0,0,1-3.719,9.3,12.413,12.413,0,0,1-9.073,3.765Zm0-17.836a4.081,4.081,0,0,0-3.154,1.358,4.754,4.754,0,0,0-1.308,3.416,4.687,4.687,0,0,0,1.308,3.416,3.969,3.969,0,0,0,3.154,1.377,4.16,4.16,0,0,0,3.193-1.377,4.879,4.879,0,0,0,1.239-3.416,4.95,4.95,0,0,0-1.239-3.416,4.282,4.282,0,0,0-3.193-1.358Z" transform="translate(-483.618 -888.014)" fill="#16284c"/>
        <path id="패스_3012" data-name="패스 3012" d="M613.037,890.73l-3.7,6.739c-.993-.678-5.676-1.445-7.876-1a4.809,4.809,0,0,0-3.66,4.469,3.842,3.842,0,0,0,1.432,3.534,5.117,5.117,0,0,0,3.081,1.381c2.039.126,6.029-.441,7.189-1.069l3.529,6.783a18.1,18.1,0,0,1-4.706,1.907,20.063,20.063,0,0,1-5.305.71q-6.348,0-10.091-3.714a12.453,12.453,0,0,1-3.763-9.179,12.61,12.61,0,0,1,3.9-9.482,13.842,13.842,0,0,1,9.949-3.729,19.1,19.1,0,0,1,5.382.743,14.991,14.991,0,0,1,4.629,1.9Z" transform="translate(-499.564 -888.014)" fill="#16284c"/>
        <path id="패스_3013" data-name="패스 3013" d="M638.58,914.188a12.324,12.324,0,0,1-9.026-3.765,12.914,12.914,0,0,1-3.7-9.3,12.719,12.719,0,0,1,3.7-9.266,12.772,12.772,0,0,1,18.131,0,12.871,12.871,0,0,1,3.682,9.266,13.07,13.07,0,0,1-3.682,9.3,12.433,12.433,0,0,1-9.105,3.765Zm-.01-17.836a4.1,4.1,0,0,0-3.126,1.358,4.771,4.771,0,0,0-1.265,3.416,4.7,4.7,0,0,0,1.265,3.416,3.984,3.984,0,0,0,3.126,1.377,4.214,4.214,0,0,0,3.23-1.377,4.929,4.929,0,0,0,1.255-3.416,5,5,0,0,0-1.255-3.416,4.338,4.338,0,0,0-3.23-1.358Z" transform="translate(-507.21 -888.014)" fill="#16284c"/>
        <path id="패스_3014" data-name="패스 3014" d="M561.611,888.592v8.453a5.276,5.276,0,0,0,4.262-2.4,10.735,10.735,0,0,0,1.48-6.048h9.34a20.841,20.841,0,0,1-1.235,7.625,11.724,11.724,0,0,1-3.709,4.978c3.418,2.619,5.257,6.833,5.63,12.68h-10c-.287-6.023-2.206-9.087-5.768-9.228v9.228h-9.146V888.592Z" transform="translate(-491.914 -888.119)" fill="#16284c"/>
        <path id="패스_3015" data-name="패스 3015" d="M679.721,897.569l-.409-.119c-1.961-.609-3.645-1.118-3.645-1.586,0-.24.667-.651,2.219-.651a15.118,15.118,0,0,1,5.633,1.154l.994.391,2.132-7.047-.841-.323a20.086,20.086,0,0,0-7.825-1.394c-6.606,0-11.252,3.4-11.252,8.338,0,3.975,2.79,6.746,8.291,8.219,3.016.845,3.364,1.347,3.364,1.5,0,.67-1.271.917-2.461.917a16.18,16.18,0,0,1-6.592-1.57l-1.028-.5-1.941,7.3.738.361a20.948,20.948,0,0,0,8.327,1.731c8.83,0,11.945-4.441,11.945-8.563C687.37,900.511,683.021,898.572,679.721,897.569Z" transform="translate(-515.65 -887.995)" fill="#16284c"/>
        <path id="패스_3016" data-name="패스 3016" d="M715.27,888.261v13.722c0,5.062-2.4,5.062-3.279,5.062-2.227,0-3.341-1.7-3.341-5.062V888.261h-8.419v13.361c0,8.132,3.971,12.51,11.473,12.51,7.727,0,12.03-4.378,12.03-12.328V888.261Z" transform="translate(-522.708 -888.05)" fill="#16284c"/>
        <rect id="사각형_1185" data-name="사각형 1185" width="8.789" height="25.422" transform="translate(236.768 0.426)" fill="#16284c"/>
      </g>
    </g>
    <g id="그룹_4468" data-name="그룹 4468" transform="translate(210.804 295.429)">
      <path id="패스_3044" data-name="패스 3044" d="M538.421,381.062a5.509,5.509,0,0,1-2.008-1.332,7.311,7.311,0,0,1-1.41-2.443,9.993,9.993,0,0,1-.507-3.345V361.635a2.248,2.248,0,0,1,1.037-1.037h12.178l1.482.952v2.769h-10.45v4.849H547.8l1.394.814v2.907h-10.45v1.466m.014-5.444h10.45l-.016,2.909-1.378.812h-9.056v4.849h10.45v2.769l-1.482.952H535.547a2.251,2.251,0,0,1-1.037-1.037l0-11.2Z" transform="translate(-473.936 -360.598)" fill="#eb7203"/>
      <path id="패스_3006" data-name="패스 3006" d="M432.138,385.728a.725.725,0,0,1-.461.774,4,4,0,0,1-1.331.168,3.927,3.927,0,0,1-1.323-.168.732.732,0,0,1-.431-.774V360.6h3.552v8.739h5.766v4.187h-5.766Z" transform="translate(-409.637 -360.598)" fill="#eb7203"/>
      <path id="패스_3007" data-name="패스 3007" d="M481.743,375.751c-.853-.371-1.742-.8-2.677-1.292a27.976,27.976,0,0,1-2.734-1.68,26.194,26.194,0,0,1-2.492-1.966,11.891,11.891,0,0,1-1.938-2.165,15.4,15.4,0,0,1-2.161,2.235,29.636,29.636,0,0,1-2.694,2.067c-.939.632-1.86,1.2-2.772,1.706s-1.706.924-2.382,1.24a.952.952,0,0,1-1.054-.039,5.03,5.03,0,0,1-1.058-1.272,4.408,4.408,0,0,1-.818-1.62.817.817,0,0,1,.517-.893c.825-.458,1.658-.932,2.479-1.406s1.624-.963,2.386-1.469a26.062,26.062,0,0,0,2.133-1.572,11.057,11.057,0,0,0,1.68-1.68,3.9,3.9,0,0,0,.888-1.746,11.139,11.139,0,0,0,.129-1.715V360.6h5.168v1.785a14.559,14.559,0,0,0,.09,1.564,3.727,3.727,0,0,0,.819,1.817A14.928,14.928,0,0,0,479,369.208a49.134,49.134,0,0,0,4.847,2.782c.439.22.624.5.561.82a5.5,5.5,0,0,1-.707,1.55,6.806,6.806,0,0,1-.893,1.311c-.221.244-.581.268-1.063.079Z" transform="translate(-428.073 -360.598)" fill="#eb7203"/>
      <path id="패스_3008" data-name="패스 3008" d="M483.4,407.054a.7.7,0,0,1,.7.552,5.315,5.315,0,0,1,.179,1.577,5.58,5.58,0,0,1-.166,1.514.675.675,0,0,1-.685.549H458.345v-4.193Z" transform="translate(-427.704 -388.802)" fill="#eb7203"/>
      <path id="패스_3006-2" data-name="패스 3006" d="M583.194,373.524h-5.766v-4.187h5.766V360.6h3.552v25.13a.731.731,0,0,1-.431.774,3.926,3.926,0,0,1-1.323.168,4,4,0,0,1-1.331-.168.726.726,0,0,1-.461-.774Z" transform="translate(-500.001 -360.598)" fill="#eb7203"/>
      <path id="패스_3045" data-name="패스 3045" d="M382.162,381.184l12.871,0V370.2h-.011v-8.082l-2.477-1.515h-12.19v10.991h.011l.008,8.274Zm2.032-3.717v-7.294h0V364.22h6.991v5.238h0v8.009Z" transform="translate(-380.356 -360.598)" fill="#eb7203"/>
    </g>
  </g>
</svg>
